# author: headus 3D tools
#  using: ply2obj v1.8
#   from: uvlayout v2.09.04
mtllib DoubleBlade.mtl
# 182 vertices
v 0.0150000 -0.4590000 -1.1940000
v 0.0190350 0.4583300 -1.1940000
v 0.0150000 -0.4590000 -1.2520300
v 0.0190350 0.4583300 -1.2520300
v 0.0163180 -0.0003350 0.7648312
v 0.0146451 -0.0003350 2.1112060
v 0.0195010 -0.0003350 -1.1940000
v 0.0485690 -0.0003350 -1.1940000
v 0.0485690 -0.0003350 -1.2520300
v 0.0080571 0.0500070 -1.2086559
v 0.0181990 0.0381950 -1.2086559
v 0.0249760 0.0205170 -1.2086559
v 0.0273548 -0.0003350 -1.2086559
v 0.0249760 -0.0211870 -1.2086559
v 0.0181990 -0.0388650 -1.2086559
v 0.0080571 -0.0506770 -1.2086559
v 0.0052150 0.0380500 -2.0619310
v 0.0129481 0.0290430 -2.0619310
v 0.0181150 0.0155640 -2.0619310
v 0.0199300 -0.0003350 -2.0619310
v 0.0181150 -0.0162340 -2.0619310
v 0.0129481 -0.0297130 -2.0619310
v 0.0052150 -0.0387200 -2.0619310
v 0.0256990 -0.0003350 -2.0369850
v 0.0256990 -0.0388100 -2.0446390
v 0.0256990 -0.0714270 -2.0664319
v 0.0256990 -0.0932210 -2.0990499
v 0.0256990 -0.1008740 -2.1375240
v 0.0256990 -0.0932210 -2.1759990
v 0.0256990 -0.0714270 -2.2086158
v 0.0256990 -0.0388100 -2.2304099
v 0.0256990 -0.0003350 -2.2380630
v 0.0256990 0.0381400 -2.2304099
v 0.0256990 0.0707570 -2.2086158
v 0.0256990 0.0925509 -2.1759990
v 0.0256990 0.1002040 -2.1375240
v 0.0256990 0.0925509 -2.0990499
v 0.0256990 0.0707570 -2.0664319
v 0.0256990 0.0381400 -2.0446390
v 0.0256990 -0.0003350 -2.0676170
v 0.0256990 -0.0270870 -2.0729390
v 0.0256990 -0.0497670 -2.0880929
v 0.0256990 -0.0649210 -2.1107720
v 0.0256990 -0.0702420 -2.1375240
v 0.0256990 -0.0649210 -2.1642760
v 0.0256990 -0.0497670 -2.1869561
v 0.0256990 -0.0270870 -2.2021100
v 0.0256990 -0.0003350 -2.2074319
v 0.0256990 0.0264170 -2.2021100
v 0.0256990 0.0490970 -2.1869561
v 0.0256990 0.0642510 -2.1642760
v 0.0256990 0.0695720 -2.1375240
v 0.0256990 0.0642510 -2.1107720
v 0.0256990 0.0490970 -2.0880929
v 0.0256990 0.0264170 -2.0729390
v 0.0409780 -0.0003350 -2.0676170
v 0.0409780 -0.0270870 -2.0729390
v 0.0409780 -0.0497670 -2.0880929
v 0.0409780 -0.0649210 -2.1107720
v 0.0409780 -0.0702420 -2.1375240
v 0.0409780 -0.0649210 -2.1642760
v 0.0409780 -0.0497670 -2.1869561
v 0.0409780 -0.0270870 -2.2021100
v 0.0409780 -0.0003350 -2.2074319
v 0.0409780 0.0264170 -2.2021100
v 0.0409780 0.0490970 -2.1869561
v 0.0409780 0.0642510 -2.1642760
v 0.0409780 0.0695720 -2.1375240
v 0.0409780 0.0642510 -2.1107720
v 0.0409780 0.0490970 -2.0880929
v 0.0409780 0.0264170 -2.0729390
v 0.0002480 -0.0635830 2.1112060
v 0.0002480 0.0629129 2.1112060
v 0.0002480 -0.0743070 0.7648312
v 0.0002480 0.0736370 0.7648312
v 0.0002480 0.4583300 -1.2520300
v 0.0002480 -0.0003350 2.5290252
v 0.0002480 -0.0970680 -1.1940000
v 0.0002480 0.0963980 -1.1940000
v 0.0002480 -0.4590000 -1.1940000
v 0.0002480 0.4583300 -1.1940000
v -0.0145040 -0.4590000 -1.1940000
v -0.0185389 0.4583300 -1.1940000
v -0.0145040 -0.4590000 -1.2520300
v -0.0185389 0.4583300 -1.2520300
v -0.0158220 -0.0003350 0.7648312
v -0.0141490 -0.0003350 2.1112060
v -0.0190039 -0.0003350 -1.1940000
v -0.0480729 -0.0003350 -1.1940000
v -0.0480729 -0.0003350 -1.2520300
v 0.0002480 -0.0548250 -1.2086559
v 0.0002480 0.0541550 -1.2086559
v -0.0075610 0.0500070 -1.2086559
v -0.0177029 0.0381950 -1.2086559
v -0.0244800 0.0205170 -1.2086559
v -0.0268589 -0.0003350 -1.2086559
v -0.0244800 -0.0211870 -1.2086559
v -0.0177029 -0.0388650 -1.2086559
v -0.0075610 -0.0506770 -1.2086559
v 0.0002480 -0.0418820 -2.0619310
v 0.0002480 0.0412120 -2.0619310
v -0.0047190 0.0380500 -2.0619310
v -0.0124520 0.0290430 -2.0619310
v -0.0176190 0.0155640 -2.0619310
v -0.0194340 -0.0003350 -2.0619310
v -0.0176190 -0.0162340 -2.0619310
v -0.0124520 -0.0297130 -2.0619310
v -0.0047190 -0.0387200 -2.0619310
v 0.0002480 -0.0003350 -2.0369850
v 0.0002480 -0.0388100 -2.0446390
v 0.0002480 -0.0714270 -2.0664319
v 0.0002480 -0.0932210 -2.0990499
v 0.0002480 -0.1008740 -2.1375240
v 0.0002480 -0.0932210 -2.1759990
v 0.0002480 -0.0714270 -2.2086158
v 0.0002480 -0.0388100 -2.2304099
v 0.0002480 -0.0003350 -2.2380630
v 0.0002480 0.0381400 -2.2304099
v 0.0002480 0.0707570 -2.2086158
v 0.0002480 0.0925509 -2.1759990
v 0.0002480 0.1002040 -2.1375240
v 0.0002480 0.0925509 -2.0990499
v 0.0002480 0.0707570 -2.0664319
v 0.0002480 0.0381400 -2.0446390
v -0.0252029 -0.0003350 -2.0369850
v -0.0252029 -0.0388100 -2.0446390
v -0.0252029 -0.0714270 -2.0664319
v -0.0252029 -0.0932210 -2.0990499
v -0.0252029 -0.1008740 -2.1375240
v -0.0252029 -0.0932210 -2.1759990
v -0.0252029 -0.0714270 -2.2086158
v -0.0252029 -0.0388100 -2.2304099
v -0.0252029 -0.0003350 -2.2380630
v -0.0252029 0.0381400 -2.2304099
v -0.0252029 0.0707570 -2.2086158
v -0.0252029 0.0925509 -2.1759990
v -0.0252029 0.1002040 -2.1375240
v -0.0252029 0.0925509 -2.0990499
v -0.0252029 0.0707570 -2.0664319
v -0.0252029 0.0381400 -2.0446390
v -0.0252029 -0.0003350 -2.0676170
v -0.0252029 -0.0270870 -2.0729390
v -0.0252029 -0.0497670 -2.0880929
v -0.0252029 -0.0649210 -2.1107720
v -0.0252029 -0.0702420 -2.1375240
v -0.0252029 -0.0649210 -2.1642760
v -0.0252029 -0.0497670 -2.1869561
v -0.0252029 -0.0270870 -2.2021100
v -0.0252029 -0.0003350 -2.2074319
v -0.0252029 0.0264170 -2.2021100
v -0.0252029 0.0490970 -2.1869561
v -0.0252029 0.0642510 -2.1642760
v -0.0252029 0.0695720 -2.1375240
v -0.0252029 0.0642510 -2.1107720
v -0.0252029 0.0490970 -2.0880929
v -0.0252029 0.0264170 -2.0729390
v -0.0404820 -0.0003350 -2.0676170
v -0.0404820 -0.0270870 -2.0729390
v -0.0404820 -0.0497670 -2.0880929
v -0.0404820 -0.0649210 -2.1107720
v -0.0404820 -0.0702420 -2.1375240
v -0.0404820 -0.0649210 -2.1642760
v -0.0404820 -0.0497670 -2.1869561
v -0.0404820 -0.0270870 -2.2021100
v -0.0404820 -0.0003350 -2.2074319
v -0.0404820 0.0264170 -2.2021100
v -0.0404820 0.0490970 -2.1869561
v -0.0404820 0.0642510 -2.1642760
v -0.0404820 0.0695720 -2.1375240
v -0.0404820 0.0642510 -2.1107720
v -0.0404820 0.0490970 -2.0880929
v -0.0404820 0.0264170 -2.0729390
v 0.0002480 -0.0003350 -1.2520300
v 0.0002480 -0.4590000 -1.2520300
v 0.0002480 0.0809070 0.1391359
v 0.0002480 -0.0815770 0.1391359
v 0.0195010 -0.0003350 0.1391359
v -0.0190039 -0.0003350 0.1391359
v 0.0195010 -0.0003350 -0.2144109
v -0.0190039 -0.0003350 -0.2144109
v 0.0002480 0.0850150 -0.2144109
v 0.0002480 -0.0856850 -0.2144109
# 84 normals
vn 0.683910 0.729415 0.000000
vn 0.000000 1.000000 0.000000
vn 0.975523 0.219221 0.002533
vn 1.000000 0.000000 0.002625
vn 1.000000 0.000000 0.002533
vn 0.974638 0.223585 0.002411
vn 0.999786 0.000000 0.017854
vn 0.975432 0.219191 0.016694
vn 0.999390 0.000000 0.034395
vn 1.000000 0.000000 0.001221
vn 0.976378 0.215925 0.001221
vn 0.000000 -1.000000 0.000000
vn 0.680797 -0.732436 0.000000
vn 1.000000 -0.004334 0.000000
vn 0.976378 -0.215925 0.001221
vn 0.978392 -0.206891 0.001129
vn 1.000000 0.000000 0.001129
vn 0.975432 -0.219191 0.016694
vn 0.000000 -0.999878 -0.015412
vn 0.637337 -0.770311 -0.012727
vn 0.636391 -0.771287 -0.012727
vn 0.636391 0.771287 -0.012727
vn 0.637337 0.770311 -0.012727
vn 0.000000 0.999878 -0.015412
vn 0.858481 0.512788 -0.010712
vn 0.859092 0.511597 -0.010712
vn 0.971220 0.237777 -0.009125
vn 0.971312 0.237289 -0.009125
vn 1.000000 0.000000 -0.008637
vn 0.971220 -0.237777 -0.009125
vn 0.971312 -0.237289 -0.009125
vn 0.858481 -0.512788 -0.010712
vn 0.859092 -0.511597 -0.010712
vn 0.000000 0.923854 -0.382683
vn 0.000000 -0.923854 -0.382683
vn 0.000000 0.923854 0.382683
vn 0.000000 -0.707044 -0.707044
vn 0.000000 0.707044 0.707044
vn 0.000000 -0.382683 -0.923854
vn 0.000000 0.382683 0.923854
vn 0.000000 0.000000 -1.000000
vn 0.000000 -0.382683 0.923854
vn 0.000000 0.000000 1.000000
vn 0.000000 0.382683 -0.923854
vn 0.000000 -0.707044 0.707044
vn 0.000000 0.707044 -0.707044
vn 0.000000 -0.923854 0.382683
vn 1.000000 0.000000 0.000000
vn -0.683910 0.729415 0.000000
vn 0.975523 -0.219221 0.002533
vn 0.974638 -0.223585 0.002411
vn -0.999786 0.000000 0.017854
vn -0.999390 0.000000 0.034395
vn -0.975432 0.219191 0.016694
vn -0.680797 -0.732436 0.000000
vn -1.000000 -0.004334 0.000000
vn -1.000000 0.000000 0.001221
vn -1.000000 0.000000 0.001129
vn -0.978392 -0.206891 0.001129
vn -0.976378 -0.215925 0.001221
vn -0.975432 -0.219191 0.016694
vn -1.000000 0.000000 0.002625
vn -0.975523 0.219221 0.002533
vn -0.636391 -0.771287 -0.012727
vn -0.637337 -0.770311 -0.012727
vn -0.636391 0.771287 -0.012727
vn -0.637337 0.770311 -0.012727
vn -0.858481 0.512788 -0.010712
vn -0.859092 0.511597 -0.010712
vn -0.971220 0.237777 -0.009125
vn -0.971312 0.237289 -0.009125
vn -1.000000 0.000000 -0.008637
vn -0.971220 -0.237777 -0.009125
vn -0.971312 -0.237289 -0.009125
vn -0.858481 -0.512788 -0.010712
vn -0.859092 -0.511597 -0.010712
vn -1.000000 0.000000 0.000000
vn -0.975523 -0.219221 0.002533
vn -0.974638 0.223585 0.002411
vn -1.000000 0.000000 0.002533
vn -0.976378 0.215925 0.001221
vn -0.978392 0.206891 0.001129
vn 0.978392 0.206891 0.001129
vn -0.974638 -0.223585 0.002411
# 244 uv coords
vt 0.073835 0.472411
vt 0.072285 0.112488
vt 0.200661 0.188189
vt 0.127988 0.032084
vt 0.118328 0.032150
vt 0.108633 0.032262
vt 0.098812 0.032222
vt 0.234334 0.032225
vt 0.224514 0.032265
vt 0.214819 0.032153
vt 0.205159 0.032087
vt 0.195510 0.032062
vt 0.185863 0.032055
vt 0.176218 0.032055
vt 0.166574 0.032055
vt 0.156930 0.032054
vt 0.147285 0.032054
vt 0.137638 0.032059
vt 0.174476 0.382708
vt 0.175904 0.376004
vt 0.179941 0.370343
vt 0.185922 0.366470
vt 0.200279 0.366470
vt 0.206260 0.370343
vt 0.210298 0.376004
vt 0.211727 0.382708
vt 0.210296 0.389400
vt 0.206232 0.395001
vt 0.200191 0.398666
vt 0.193102 0.399877
vt 0.186012 0.398666
vt 0.179972 0.395002
vt 0.175908 0.389400
vt 0.055384 0.113724
vt 0.053548 0.472773
vt 0.160009 0.142832
vt 0.160203 0.388049
vt 0.033263 0.472331
vt 0.038490 0.112401
vt 0.226172 0.188189
vt 0.127987 0.038850
vt 0.118296 0.038848
vt 0.108486 0.038845
vt 0.098398 0.038842
vt 0.234749 0.038845
vt 0.224662 0.038848
vt 0.214851 0.038851
vt 0.205160 0.038853
vt 0.195507 0.038855
vt 0.185861 0.038857
vt 0.176217 0.038857
vt 0.166574 0.038857
vt 0.156930 0.038856
vt 0.147286 0.038855
vt 0.137641 0.038852
vt 0.127985 0.045617
vt 0.118325 0.045545
vt 0.108630 0.045428
vt 0.098809 0.045462
vt 0.234338 0.045465
vt 0.224518 0.045431
vt 0.214822 0.045548
vt 0.205162 0.045620
vt 0.195512 0.045649
vt 0.185864 0.045657
vt 0.176218 0.045659
vt 0.166573 0.045659
vt 0.156928 0.045658
vt 0.147283 0.045656
vt 0.137635 0.045646
vt 0.182717 0.087076
vt 0.181289 0.080372
vt 0.177252 0.074711
vt 0.171270 0.070838
vt 0.156913 0.070838
vt 0.150932 0.074711
vt 0.146894 0.080372
vt 0.145465 0.087076
vt 0.146897 0.093769
vt 0.150961 0.099370
vt 0.157001 0.103034
vt 0.164091 0.104245
vt 0.171181 0.103034
vt 0.177221 0.099370
vt 0.181285 0.093769
vt 0.213416 0.188189
vt 0.053213 0.639974
vt 0.075539 0.639700
vt 0.030886 0.639682
vt 0.076628 0.734223
vt 0.029823 0.734279
vt 0.053226 0.734524
vt 0.054672 0.996415
vt 0.028306 0.996174
vt 0.081043 0.996051
vt 0.001943 0.995982
vt 0.006430 0.734056
vt 0.100019 0.733897
vt 0.107410 0.995641
vt 0.008568 0.639362
vt 0.097857 0.639408
vt 0.013010 0.471837
vt 0.094091 0.472031
vt 0.021401 0.110944
vt 0.089381 0.111149
vt 0.055738 0.001943
vt 0.160145 0.291299
vt 0.165277 0.265441
vt 0.173048 0.265435
vt 0.165225 0.388058
vt 0.163954 0.142846
vt 0.160109 0.239582
vt 0.165153 0.403579
vt 0.160130 0.403562
vt 0.155182 0.388040
vt 0.147218 0.265446
vt 0.154989 0.265440
vt 0.160138 0.127320
vt 0.164080 0.127346
vt 0.156064 0.142817
vt 0.155108 0.403543
vt 0.156195 0.127294
vt 0.233082 0.064898
vt 0.241570 0.188122
vt 0.217523 0.065812
vt 0.234167 0.311342
vt 0.218600 0.310564
vt 0.213416 0.065650
vt 0.213415 0.310728
vt 0.209308 0.065812
vt 0.208231 0.310564
vt 0.193749 0.064898
vt 0.185263 0.188122
vt 0.192664 0.311342
vt 0.187807 0.649752
vt 0.182202 0.649862
vt 0.177909 0.421800
vt 0.182189 0.421716
vt 0.176592 0.649961
vt 0.173633 0.421875
vt 0.192863 0.649641
vt 0.186051 0.421631
vt 0.171534 0.650038
vt 0.169774 0.421934
vt 0.197020 0.649535
vt 0.189226 0.421550
vt 0.167383 0.650086
vt 0.166592 0.421970
vt 0.199380 0.649463
vt 0.190798 0.421504
vt 0.165026 0.650102
vt 0.165017 0.421982
vt 0.163451 0.421968
vt 0.162659 0.650083
vt 0.160279 0.421928
vt 0.158498 0.650032
vt 0.156415 0.421866
vt 0.153444 0.649951
vt 0.152134 0.421787
vt 0.147840 0.649849
vt 0.147851 0.421701
vt 0.142238 0.649736
vt 0.143989 0.421614
vt 0.137183 0.649624
vt 0.140817 0.421532
vt 0.133022 0.649516
vt 0.130660 0.649444
vt 0.139246 0.421485
vt 0.165737 0.064898
vt 0.173079 0.067337
vt 0.164092 0.068929
vt 0.179999 0.071895
vt 0.184887 0.078785
vt 0.155105 0.067337
vt 0.162447 0.064898
vt 0.186651 0.087085
vt 0.148185 0.071895
vt 0.184864 0.095398
vt 0.143296 0.078784
vt 0.179846 0.102293
vt 0.141532 0.087084
vt 0.172526 0.106723
vt 0.143318 0.095397
vt 0.164091 0.108194
vt 0.148336 0.102293
vt 0.155656 0.106723
vt 0.214806 0.024161
vt 0.224266 0.024297
vt 0.205182 0.024072
vt 0.233217 0.024252
vt 0.195524 0.024036
vt 0.241007 0.022931
vt 0.244422 0.030980
vt 0.185869 0.024026
vt 0.245107 0.038842
vt 0.224274 0.053398
vt 0.214814 0.053541
vt 0.176219 0.024024
vt 0.205188 0.053634
vt 0.244426 0.046704
vt 0.233225 0.053439
vt 0.166574 0.024024
vt 0.195529 0.053674
vt 0.241015 0.054755
vt 0.156929 0.024023
vt 0.185871 0.053687
vt 0.147279 0.024024
vt 0.176220 0.053690
vt 0.137624 0.024033
vt 0.166573 0.053690
vt 0.127966 0.024069
vt 0.156926 0.053689
vt 0.118341 0.024158
vt 0.147275 0.053685
vt 0.108881 0.024294
vt 0.137618 0.053672
vt 0.099930 0.024249
vt 0.127959 0.053631
vt 0.088725 0.030977
vt 0.092140 0.022928
vt 0.118334 0.053538
vt 0.088040 0.038839
vt 0.108873 0.053396
vt 0.088721 0.046702
vt 0.099923 0.053436
vt 0.092132 0.054753
vt 0.202087 0.362968
vt 0.209008 0.367527
vt 0.177194 0.367527
vt 0.184114 0.362968
vt 0.193100 0.364560
vt 0.194745 0.360529
vt 0.191455 0.360529
vt 0.213897 0.374416
vt 0.172305 0.374416
vt 0.215661 0.382716
vt 0.170542 0.382716
vt 0.213874 0.391029
vt 0.172329 0.391029
vt 0.208857 0.397924
vt 0.177347 0.397925
vt 0.201536 0.402354
vt 0.184667 0.402355
vt 0.193102 0.403826
# 164 polygons
usemtl None
s 1
f 2/110/1 4/113/1 76/114/2 81/37/2
f 75/35/3 5/1/4 177/88/5 175/87/6
f 6/2/7 73/34/8 77/106/9
f 175/87/6 177/88/5 179/90/10 181/92/11
f 80/36/12 174/118/12 3/119/13 1/111/13
f 8/133/14 9/3/14 4/131/1 2/134/1
f 1/132/13 3/130/13 9/3/14 8/133/14
f 179/90/10 182/98/15 78/99/16 7/95/17
f 72/105/18 6/2/7 77/106/9
f 5/1/4 75/35/3 73/34/8 6/2/7
f 91/167/19 100/168/19 23/165/20 16/166/21
f 10/154/22 17/153/23 101/152/24 92/151/24
f 11/156/25 18/155/26 17/153/23 10/154/22
f 12/158/27 19/157/28 18/155/26 11/156/25
f 13/160/29 20/159/29 19/157/28 12/158/27
f 14/162/30 21/161/31 20/159/29 13/160/29
f 15/164/32 22/163/33 21/161/31 14/162/30
f 16/166/21 23/165/20 22/163/33 15/164/32
f 121/52/2 36/15/2 35/14/34 120/51/34
f 114/45/35 29/8/35 28/193/12 113/195/12
f 122/53/36 37/16/36 36/15/2 121/52/2
f 115/46/37 30/9/37 29/8/35 114/45/35
f 123/54/38 38/17/38 37/16/36 122/53/36
f 116/47/39 31/10/39 30/9/37 115/46/37
f 124/55/40 39/18/40 38/17/38 123/54/38
f 117/48/41 32/11/41 31/10/39 116/47/39
f 110/42/42 25/5/42 24/4/43 109/41/43
f 109/41/43 24/4/43 39/18/40 124/55/40
f 118/49/44 33/12/44 32/11/41 117/48/41
f 111/43/45 26/6/45 25/5/42 110/42/42
f 119/50/46 34/13/46 33/12/44 118/49/44
f 112/44/47 27/7/47 26/6/45 111/43/45
f 120/51/34 35/14/34 34/13/46 119/50/46
f 113/222/12 28/219/12 27/7/47 112/44/47
f 35/14/48 51/198/48 50/194/48 34/13/48
f 28/219/48 44/220/48 43/217/48 27/7/48
f 36/15/48 52/202/48 51/198/48 35/14/48
f 29/8/48 45/190/48 44/192/48 28/193/48
f 37/16/48 53/205/48 52/202/48 36/15/48
f 30/9/48 46/188/48 45/190/48 29/8/48
f 38/17/48 54/207/48 53/205/48 37/16/48
f 31/10/48 47/187/48 46/188/48 30/9/48
f 39/18/48 55/209/48 54/207/48 38/17/48
f 32/11/48 48/189/48 47/187/48 31/10/48
f 25/5/48 41/213/48 40/211/48 24/4/48
f 24/4/48 40/211/48 55/209/48 39/18/48
f 33/12/48 49/191/48 48/189/48 32/11/48
f 26/6/48 42/215/48 41/213/48 25/5/48
f 34/13/48 50/194/48 49/191/48 33/12/48
f 27/7/48 43/217/48 42/215/48 26/6/48
f 41/235/42 57/20/42 56/19/43 40/237/43
f 40/237/43 56/19/43 71/33/40 55/239/40
f 49/238/44 65/27/44 64/26/41 48/236/41
f 42/229/45 58/21/45 57/20/42 41/235/42
f 50/240/46 66/28/46 65/27/44 49/238/44
f 43/230/47 59/22/47 58/21/45 42/229/45
f 51/242/34 67/29/34 66/28/46 50/240/46
f 44/233/12 60/231/12 59/22/47 43/230/47
f 52/244/2 68/30/2 67/29/34 51/242/34
f 45/227/35 61/23/35 60/231/12 44/232/12
f 53/243/36 69/31/36 68/30/2 52/244/2
f 46/228/37 62/24/37 61/23/35 45/227/35
f 54/241/38 70/32/38 69/31/36 53/243/36
f 47/234/39 63/25/39 62/24/37 46/228/37
f 55/239/40 71/33/40 70/32/38 54/241/38
f 48/236/41 64/26/41 63/25/39 47/234/39
f 68/30/48 69/31/48 67/29/48
f 67/29/48 69/31/48 70/32/48 66/28/48
f 66/28/48 70/32/48 71/33/48 65/27/48
f 65/27/48 71/33/48 56/19/48 64/26/48
f 57/20/48 63/25/48 64/26/48 56/19/48
f 58/21/48 62/24/48 63/25/48 57/20/48
f 59/22/48 61/23/48 62/24/48 58/21/48
f 60/231/48 61/23/48 59/22/48
f 9/3/41 173/86/41 76/129/41 4/131/41
f 3/130/41 174/128/41 173/86/41 9/3/41
f 79/107/43 7/108/43 8/109/43 2/110/43 81/37/43
f 80/36/43 1/111/43 8/109/43 7/108/43 78/112/43
f 83/115/49 81/37/2 76/114/2 85/121/49
f 5/1/4 74/103/50 176/101/51 177/88/5
f 87/39/52 77/106/53 73/34/54
f 80/36/12 82/120/55 84/122/55 174/118/12
f 89/124/56 83/126/49 85/127/49 90/40/56
f 82/123/55 89/124/56 90/40/56 84/125/55
f 180/91/57 88/94/58 78/96/59 182/97/60
f 72/104/61 77/106/53 87/39/52
f 86/38/62 87/39/52 73/34/54 75/35/63
f 91/149/19 99/145/64 108/146/65 100/150/19
f 93/147/66 92/151/24 101/152/24 102/148/67
f 94/143/68 93/147/66 102/148/67 103/144/69
f 95/139/70 94/143/68 103/144/69 104/140/71
f 96/136/72 95/139/70 104/140/71 105/137/72
f 97/135/73 96/136/72 105/137/72 106/138/74
f 98/141/75 97/135/73 106/138/74 107/142/76
f 99/145/64 98/141/75 107/142/76 108/146/65
f 121/52/2 120/51/34 136/66/34 137/67/2
f 114/45/35 113/195/12 129/200/12 130/60/35
f 122/53/36 121/52/2 137/67/2 138/68/36
f 115/46/37 114/45/35 130/60/35 131/61/37
f 123/54/38 122/53/36 138/68/36 139/69/38
f 116/47/39 115/46/37 131/61/37 132/62/39
f 124/55/40 123/54/38 139/69/38 140/70/40
f 117/48/41 116/47/39 132/62/39 133/63/41
f 110/42/42 109/41/43 125/56/43 126/57/42
f 109/41/43 124/55/40 140/70/40 125/56/43
f 118/49/44 117/48/41 133/63/41 134/64/44
f 111/43/45 110/42/42 126/57/42 127/58/45
f 119/50/46 118/49/44 134/64/44 135/65/46
f 112/44/47 111/43/45 127/58/45 128/59/47
f 120/51/34 119/50/46 135/65/46 136/66/34
f 113/222/12 112/44/47 128/59/47 129/224/12
f 136/66/77 135/65/77 151/206/77 152/208/77
f 129/224/77 128/59/77 144/225/77 145/226/77
f 137/67/77 136/66/77 152/208/77 153/210/77
f 130/60/77 129/200/77 145/204/77 146/201/77
f 138/68/77 137/67/77 153/210/77 154/212/77
f 131/61/77 130/60/77 146/201/77 147/196/77
f 139/69/77 138/68/77 154/212/77 155/214/77
f 132/62/77 131/61/77 147/196/77 148/197/77
f 140/70/77 139/69/77 155/214/77 156/216/77
f 133/63/77 132/62/77 148/197/77 149/199/77
f 126/57/77 125/56/77 141/218/77 142/221/77
f 125/56/77 140/70/77 156/216/77 141/218/77
f 134/64/77 133/63/77 149/199/77 150/203/77
f 127/58/77 126/57/77 142/221/77 143/223/77
f 135/65/77 134/64/77 150/203/77 151/206/77
f 128/59/77 127/58/77 143/223/77 144/225/77
f 142/173/42 141/176/43 157/71/43 158/72/42
f 141/176/43 156/178/40 172/85/40 157/71/43
f 150/183/44 149/181/41 165/78/41 166/79/44
f 143/172/45 142/173/42 158/72/42 159/73/45
f 151/185/46 150/183/44 166/79/44 167/80/46
f 144/170/47 143/172/45 159/73/45 160/74/47
f 152/186/34 151/185/46 167/80/46 168/81/34
f 145/169/12 144/170/47 160/74/47 161/171/12
f 153/184/2 152/186/34 168/81/34 169/82/2
f 146/174/35 145/175/12 161/171/12 162/75/35
f 154/182/36 153/184/2 169/82/2 170/83/36
f 147/177/37 146/174/35 162/75/35 163/76/37
f 155/180/38 154/182/36 170/83/36 171/84/38
f 148/179/39 147/177/37 163/76/37 164/77/39
f 156/178/40 155/180/38 171/84/38 172/85/40
f 149/181/41 148/179/39 164/77/39 165/78/41
f 169/82/77 168/81/77 170/83/77
f 168/81/77 167/80/77 171/84/77 170/83/77
f 167/80/77 166/79/77 172/85/77 171/84/77
f 166/79/77 165/78/77 157/71/77 172/85/77
f 158/72/77 157/71/77 165/78/77 164/77/77
f 159/73/77 158/72/77 164/77/77 163/76/77
f 160/74/77 159/73/77 163/76/77 162/75/77
f 161/171/77 160/74/77 162/75/77
f 90/40/41 85/127/41 76/129/41 173/86/41
f 84/125/41 90/40/41 173/86/41 174/128/41
f 79/107/43 81/37/43 83/115/43 89/116/43 88/117/43
f 80/36/43 78/112/43 88/117/43 89/116/43 82/120/43
f 74/102/78 72/104/61 87/39/52 86/38/62
f 74/103/50 5/1/4 6/2/7 72/105/18
f 75/35/63 175/87/79 178/89/80 86/38/62
f 181/92/81 79/93/82 88/94/58 180/91/57
f 175/87/79 181/92/81 180/91/57 178/89/80
f 181/92/11 179/90/10 7/95/17 79/93/83
f 86/38/62 178/89/80 176/100/84 74/102/78
f 179/90/10 177/88/5 176/101/51 182/98/15
f 178/89/80 180/91/57 182/97/60 176/100/84
# totals: 182 244 84 164
